<svg xmlns="http://www.w3.org/2000/svg" width="2048" height="2048" shape-rendering="geometricPrecision" image-rendering="optimizeQuality" fill-rule="evenodd" fill="#212121" xmlns:v="https://vecta.io/nano"><path d="M1024 257.442c211.975 0 403.933 85.804 542.924 224.525 139.054 138.784 225.063 330.429 225.063 542.033s-86.009 403.249-225.063 542.033c-138.991 138.722-330.949 224.525-542.924 224.525s-403.933-85.804-542.924-224.525C342.022 1427.249 256.013 1235.604 256.013 1024s86.009-403.249 225.063-542.033C620.067 343.245 812.025 257.442 1024 257.442zm499.725 267.964C1395.878 397.808 1219.2 318.882 1024 318.882s-371.877 78.926-499.725 206.524C396.493 652.943 317.454 829.22 317.454 1024s79.038 371.058 206.821 498.594C652.122 1650.192 828.8 1729.118 1024 1729.118s371.877-78.926 499.725-206.524c127.782-127.537 206.821-303.814 206.821-498.594s-79.038-371.058-206.821-498.594zM1054.72 415.323c0-16.966-13.755-30.721-30.721-30.721s-30.721 13.754-30.721 30.721V538.2c0 16.965 13.755 30.721 30.721 30.721s30.721-13.755 30.721-30.721V415.323zm0 1100.187c0-16.966-13.755-30.72-30.721-30.72s-30.721 13.754-30.721 30.72v122.877c0 16.965 13.755 30.719 30.721 30.719s30.721-13.754 30.721-30.719V1515.51zm423.42-899.354c11.994-11.994 11.994-31.444 0-43.439s-31.446-11.995-43.44 0l-86.888 86.887c-11.994 11.995-11.994 31.444 0 43.44s31.445 11.995 43.44 0l86.888-86.888zM700.19 1394.11c11.994-11.994 11.994-31.445 0-43.439s-31.446-11.995-43.44 0l-86.889 86.888c-11.994 11.995-11.994 31.445 0 43.44s31.446 11.994 43.44 0l86.889-86.889zm935.34-336.53c16.966 0 30.72-13.755 30.72-30.72s-13.754-30.721-30.72-30.721h-122.877c-16.965 0-30.719 13.755-30.719 30.721s13.754 30.72 30.719 30.72h122.877zm-1100.184 0c16.965 0 30.719-13.755 30.719-30.72s-13.754-30.721-30.719-30.721H412.468c-16.966 0-30.721 13.755-30.721 30.721s13.754 30.72 30.721 30.72h122.878zM1434.7 1481c11.994 11.994 31.445 11.994 43.44 0s11.994-31.445 0-43.44l-86.889-86.888c-11.994-11.995-31.445-11.995-43.44 0s-11.994 31.445 0 43.439L1434.7 1481zM656.749 703.045c11.994 11.994 31.444 11.994 43.44 0s11.994-31.444 0-43.44L613.3 572.717c-11.994-11.995-31.444-11.995-43.44 0s-11.994 31.444 0 43.439l86.889 86.889zm397.971-47.679c0-16.966-13.755-30.721-30.721-30.721s-30.721 13.754-30.721 30.721V1024c0 16.965 13.755 30.72 30.721 30.72h337.914c16.965 0 30.719-13.755 30.719-30.721s-13.754-30.721-30.719-30.721H1054.72V655.365z" fill-rule="nonzero"/><circle cx="1024" cy="1024" r="79.008"/></svg>